<?xml version="1.0" encoding="iso-8859-1"?>
<!-- Generator: Adobe Illustrator 18.0.0, SVG Export Plug-In . SVG Version: 6.00 Build 0)  -->
<!DOCTYPE svg PUBLIC "-//W3C//DTD SVG 1.1//EN" "http://www.w3.org/Graphics/SVG/1.1/DTD/svg11.dtd">
<svg version="1.1" id="Capa_1" xmlns="http://www.w3.org/2000/svg" xmlns:xlink="http://www.w3.org/1999/xlink" x="0px" y="0px"
	 viewBox="0 0 196.338 196.338" style="enable-background:new 0 0 196.338 196.338;" xml:space="preserve">
<g>
	<path d="M195.767,66.465c-0.761-1.838-2.221-3.298-4.059-4.059L63.483,9.295c-3.824-1.583-8.214,0.232-9.799,4.059L0.571,141.58
		c-0.762,1.838-0.762,3.902,0,5.74c0.761,1.838,2.221,3.298,4.059,4.059l86.104,35.665c0.919,0.38,1.895,0.571,2.87,0.571
		c0.976,0,1.951-0.19,2.87-0.571l59.566-24.676c1.838-0.761,3.298-2.221,4.059-4.059l35.667-86.105
		C196.528,70.368,196.528,68.303,195.767,66.465z M107.464,166.256l7.647-18.463l18.462,7.647L107.464,166.256z M149.112,145.639
		l-35.19-14.575c-3.823-1.583-8.214,0.232-9.799,4.059l-14.577,35.193l-72.248-29.925L64.672,26.023l114.367,47.371L149.112,145.639
		z"/>
	<polygon points="133.374,98.043 127.632,84.186 89.229,100.098 82.708,84.358 68.851,90.098 81.111,119.697 	"/>
</g>
<g>
</g>
<g>
</g>
<g>
</g>
<g>
</g>
<g>
</g>
<g>
</g>
<g>
</g>
<g>
</g>
<g>
</g>
<g>
</g>
<g>
</g>
<g>
</g>
<g>
</g>
<g>
</g>
<g>
</g>
</svg>
