<?xml version="1.0" encoding="iso-8859-1"?>
<!-- Generator: Adobe Illustrator 16.0.0, SVG Export Plug-In . SVG Version: 6.00 Build 0)  -->
<!DOCTYPE svg PUBLIC "-//W3C//DTD SVG 1.1//EN" "http://www.w3.org/Graphics/SVG/1.1/DTD/svg11.dtd">
<svg version="1.1" id="Capa_1" xmlns="http://www.w3.org/2000/svg" xmlns:xlink="http://www.w3.org/1999/xlink" x="0px" y="0px"
	 width="123.062px" height="123.062px" viewBox="0 0 123.062 123.062" style="enable-background:new 0 0 123.062 123.062;"
	 xml:space="preserve">
<g>
	<g>
		<circle cx="31.942" cy="13.244" r="13.244"/>
		<circle cx="75.716" cy="13.248" r="13.244"/>
		<path d="M84.045,106.489l0.005,9.567c0.002,3.871,3.141,7.006,7.012,7.006h0.004c3.871-0.002,7.009-3.145,7.007-7.016
			l-0.005-9.559L84.045,106.489L84.045,106.489z"/>
		<path d="M107.409,75.331c-0.436-2.573-2.327-4.641-4.786-5.372c0.027-0.425,0.02-0.854-0.065-1.291
			c-0.656-3.352-8.698-34.911-8.698-34.911c-1.141-5.323-4.825-7.881-9.411-8.014l-0.039,0.002c0,0-1.615,0.009-3.01,0.274
			c-1.458,0.278-2.735,0.979-2.735,0.979c-3.38,1.64-6.612,5.027-7.009,9.141c-0.053,0.198-0.118,0.39-0.147,0.599
			c-0.893,6.283-1.786,10.265-3.711,12.019c-1.985,1.806-6.445,2.612-14.459,2.612c-1.855,0-3.466,0.991-4.371,2.466
			c-4.836-0.987-7.69-2.239-9.197-3.984c-1.958-2.262-2.671-6.464-3.616-13.114c-0.029-0.209-0.095-0.403-0.147-0.6
			c-0.396-4.112-3.629-7.502-7.011-9.141c0,0-1.277-0.701-2.733-0.98c-1.395-0.266-3.011-0.273-3.011-0.273l-0.039-0.003
			c-4.586,0.133-9.985,2.688-11.127,8.015L5.959,62.34c-0.816,3.817,0.891,7.233,3.652,9.592l-0.027,44.113
			c-0.002,3.873,3.136,7.014,7.008,7.017c0,0,0.003,0,0.004,0c3.87,0,7.009-3.138,7.011-7.009l0.025-41.74
			c2.897-1.152,5.346-3.391,6.094-6.881l2.319-10.821c3.689,4.307,9.781,6.776,20.644,8.263c0.236,0.032,0.471,0.051,0.704,0.051
			c2.167,0,4.088-1.379,4.818-3.395c8.504-0.449,13.78-2.2,17.209-5.808l2.51,11.716c0.65,3.031,2.588,5.117,4.987,6.369h3.336
			c0.717-2.021,2.168-3.688,4.078-4.683c-1.74-8.297-4.154-16.455-6.23-21.414c-1.415-2.603,0.561-3.5,1.614-0.799
			c1.053,2.703,4.99,15.014,6.603,23.063c-2.43,0.748-4.292,2.803-4.723,5.355h-9.901v29.252h39.613V75.331H107.409z M91.136,75.331
			c0.407-1.129,1.388-1.981,2.594-2.19c0.957,1.031,2.313,1.662,3.769,1.662c0.326,0,0.659-0.033,0.992-0.1
			c1.114-0.218,2.064-0.79,2.781-1.566c1.207,0.211,2.189,1.065,2.597,2.194H91.136z"/>
	</g>
</g>
<g>
</g>
<g>
</g>
<g>
</g>
<g>
</g>
<g>
</g>
<g>
</g>
<g>
</g>
<g>
</g>
<g>
</g>
<g>
</g>
<g>
</g>
<g>
</g>
<g>
</g>
<g>
</g>
<g>
</g>
</svg>
