<?xml version="1.0" encoding="iso-8859-1"?>
<!-- Generator: Adobe Illustrator 18.1.1, SVG Export Plug-In . SVG Version: 6.00 Build 0)  -->
<svg version="1.1" id="Capa_1" xmlns="http://www.w3.org/2000/svg" xmlns:xlink="http://www.w3.org/1999/xlink" x="0px" y="0px"
	 viewBox="0 0 355.323 355.323" style="enable-background:new 0 0 355.323 355.323;" xml:space="preserve">
<g>
	<g id="Layer_5_22_">
		<g>
			<g>
				<path d="M264.753,94.433h-88.501c-2.762,0-5-2.238-5-5s2.238-5,5-5h88.501c2.762,0,5,2.238,5,5S267.515,94.433,264.753,94.433z"
					/>
			</g>
			<g>
				<path d="M223.873,65.933h-47.914c-2.762,0-5-2.238-5-5s2.238-5,5-5h47.914c2.762,0,5,2.238,5,5S226.635,65.933,223.873,65.933z"
					/>
			</g>
			<g>
				<g>
					<path d="M103.202,339.33c0.27,8.797-6.711,15.993-15.512,15.993H23.501c-8.799,0-15.779-7.196-15.512-15.993
						c0,0,2.858-93.718,2.858-130.287c0-36.003-2.85-128.018-2.85-128.018c-0.273-8.797,6.705-15.993,15.504-15.993H87.69
						c8.801,0,15.777,7.196,15.506,15.993c0,0-2.852,92.015-2.852,128.018C100.345,245.612,103.202,339.33,103.202,339.33z"/>
				</g>
				<g>
					<path d="M334.341,65.032l-12.305,0.167c-2.5,0-3-2.997-3.389-4.548c-1.165-4.651-3.917-9.386-7.29-12.16l-51.486-42.34
						C255.608,2.643,248.23,0,242.711,0h-81.989c-7.002,0-12.699,5.696-12.699,12.699v47.586c0,0,0.139,4.747-3.489,4.747
						c-2.37,0-10.603,0-10.603,0c-7.15,0-13,5.851-13,13v264.291c0,7.15,5.85,13,13,13h200.41c7.15,0,13-5.85,13-13V78.032
						C347.341,70.882,341.491,65.032,334.341,65.032z M256.351,18.453c0-2.167,1.949-0.533,1.949-0.533l42.507,36.316
						c0,0,1.917,1.656-0.771,1.656c-10.098,0-40.391,0-40.391,0c-1.816,0-3.295-1.478-3.295-3.295
						C256.351,52.597,256.351,26.989,256.351,18.453z M157.427,12.699c0-1.787,1.51-3.295,3.295-3.295h81.989
						c3.034,0,4.236,2.291,4.236,3.733v39.46c0,7.003,5.697,12.699,12.698,12.699h47.843c2.506,0,2.356,2.209,2.356,2.24v73.166
						c0,2.5-2.138,2.258-2.684,2.258H159.662c-0.546,0-2.235-0.091-2.235-2.008V12.699z M196.208,317.169c0,4.4-3.6,8-8,8h-28.186
						c-4.398,0-8-3.6-8-8v-23.88c0-4.399,3.602-8,8-8h28.186c4.4,0,8,3.601,8,8V317.169z M196.208,265.165c0,4.4-3.6,8-8,8h-28.186
						c-4.398,0-8-3.6-8-8v-23.881c0-4.4,3.602-8,8-8h28.186c4.4,0,8,3.6,8,8V265.165z M196.208,213.161c0,4.4-3.6,8-8,8h-28.186
						c-4.398,0-8-3.6-8-8V189.28c0-4.4,3.602-8,8-8h28.186c4.4,0,8,3.6,8,8V213.161z M256.227,317.169c0,4.4-3.6,8-8,8h-28.184
						c-4.4,0-8-3.6-8-8v-23.88c0-4.399,3.6-8,8-8h28.184c4.4,0,8,3.601,8,8V317.169z M256.227,265.165c0,4.4-3.6,8-8,8h-28.184
						c-4.4,0-8-3.6-8-8v-23.881c0-4.4,3.6-8,8-8h28.184c4.4,0,8,3.6,8,8V265.165z M256.227,213.161c0,4.4-3.6,8-8,8h-28.184
						c-4.4,0-8-3.6-8-8V189.28c0-4.4,3.6-8,8-8h28.184c4.4,0,8,3.6,8,8V213.161z M316.249,317.169c0,4.4-3.6,8-8,8h-28.184
						c-4.4,0-8-3.6-8-8v-23.88c0-4.399,3.6-8,8-8h28.184c4.4,0,8,3.601,8,8V317.169z M316.249,265.165c0,4.4-3.6,8-8,8h-28.184
						c-4.4,0-8-3.6-8-8v-23.881c0-4.4,3.6-8,8-8h28.184c4.4,0,8,3.6,8,8V265.165z M316.249,213.161c0,4.4-3.6,8-8,8h-28.184
						c-4.4,0-8-3.6-8-8V189.28c0-4.4,3.6-8,8-8h28.184c4.4,0,8,3.6,8,8V213.161z"/>
				</g>
			</g>
		</g>
	</g>
</g>
<g>
</g>
<g>
</g>
<g>
</g>
<g>
</g>
<g>
</g>
<g>
</g>
<g>
</g>
<g>
</g>
<g>
</g>
<g>
</g>
<g>
</g>
<g>
</g>
<g>
</g>
<g>
</g>
<g>
</g>
</svg>
