<?xml version="1.0" encoding="iso-8859-1"?>
<!-- Generator: Adobe Illustrator 18.0.0, SVG Export Plug-In . SVG Version: 6.00 Build 0)  -->
<!DOCTYPE svg PUBLIC "-//W3C//DTD SVG 1.1//EN" "http://www.w3.org/Graphics/SVG/1.1/DTD/svg11.dtd">
<svg version="1.1" id="Capa_1" xmlns="http://www.w3.org/2000/svg" xmlns:xlink="http://www.w3.org/1999/xlink" x="0px" y="0px"
	 viewBox="0 0 494.008 494.008" style="enable-background:new 0 0 494.008 494.008;" xml:space="preserve">
<g>
	<path d="M467.377,154.756H334.891v-32.23c0-48.546-39.353-87.895-87.902-87.895c-48.528,0-87.881,39.35-87.881,87.895v32.23H26.633
		C11.934,154.756,0,166.689,0,181.387v251.359c0,14.697,11.934,26.631,26.633,26.631h440.744c14.699,0,26.631-11.934,26.631-26.631
		V181.387C494.008,166.689,482.076,154.756,467.377,154.756z M430.877,274.143c0,6.816-5.534,12.348-12.352,12.348H290.408
		c-6.82,0-12.349-5.531-12.349-12.348c0-6.818,5.528-12.354,12.349-12.354h128.117C425.343,261.789,430.877,267.324,430.877,274.143
		z M366.392,195.924c6.815,0,12.349,5.531,12.349,12.348c0,6.817-5.533,12.352-12.349,12.352h-75.983
		c-6.82,0-12.349-5.534-12.349-12.352c0-6.816,5.528-12.348,12.349-12.348H366.392z M246.988,73.016
		c19.41,0,35.137,15.727,35.137,35.137c0,19.395-15.727,35.121-35.137,35.121c-19.393,0-35.121-15.727-35.121-35.121
		C211.867,88.742,227.596,73.016,246.988,73.016z M239.719,386.791c0,19.213-15.646,34.859-34.857,34.859H72.24
		c-19.219,0-34.865-15.646-34.865-34.859V227.342c0-19.212,15.646-34.858,34.865-34.858h132.621
		c19.211,0,34.857,15.646,34.857,34.858V386.791z M448.726,418.227h-75.979c-6.824,0-12.353-5.531-12.353-12.35
		c0-6.818,5.528-12.352,12.353-12.352h75.979c6.816,0,12.349,5.533,12.349,12.352C461.074,412.695,455.541,418.227,448.726,418.227z
		 M448.726,352.359H290.408c-6.82,0-12.349-5.535-12.349-12.352c0-6.816,5.528-12.348,12.349-12.348h158.317
		c6.816,0,12.349,5.531,12.349,12.348C461.074,346.824,455.541,352.359,448.726,352.359z"/>
	<path d="M204.861,208.949H72.24c-10.147,0-18.399,8.252-18.399,18.393v159.449c0,10.149,8.252,18.393,18.399,18.393h132.621
		c10.141,0,18.391-8.244,18.391-18.393V227.342C223.252,217.201,215.002,208.949,204.861,208.949z M138.541,223.809
		c23.457,0,42.515,25.054,42.515,55.947c0,30.887-19.058,55.975-42.515,55.975c-23.462,0-42.522-25.088-42.522-55.975
		C96.02,248.862,115.079,223.809,138.541,223.809z M200.16,386.34c-1.302,1.555-3.197,2.439-5.211,2.439H82.145
		c-2.012,0-3.926-0.896-5.21-2.439c-1.307-1.543-1.831-3.59-1.479-5.566c2.826-15.873,11.412-29.398,23.382-38.803
		c0.317-0.238,0.595-0.58,0.946-0.869c10.757,9.984,24.17,16.018,38.758,16.018c14.566,0,27.979-6.033,38.786-16.018
		c0.29,0.289,0.595,0.631,0.947,0.869c11.917,9.404,20.487,22.93,23.349,38.803C201.98,382.766,201.449,384.797,200.16,386.34z"/>
</g>
<g>
</g>
<g>
</g>
<g>
</g>
<g>
</g>
<g>
</g>
<g>
</g>
<g>
</g>
<g>
</g>
<g>
</g>
<g>
</g>
<g>
</g>
<g>
</g>
<g>
</g>
<g>
</g>
<g>
</g>
</svg>
