<?xml version="1.0" encoding="iso-8859-1"?>
<!-- Generator: Adobe Illustrator 16.0.0, SVG Export Plug-In . SVG Version: 6.00 Build 0)  -->
<!DOCTYPE svg PUBLIC "-//W3C//DTD SVG 1.1//EN" "http://www.w3.org/Graphics/SVG/1.1/DTD/svg11.dtd">
<svg version="1.1" id="Capa_1" xmlns="http://www.w3.org/2000/svg" xmlns:xlink="http://www.w3.org/1999/xlink" x="0px" y="0px"
	 width="954.4px" height="954.4px" viewBox="0 0 954.4 954.4" style="enable-background:new 0 0 954.4 954.4;" xml:space="preserve"
	>
<g>
	<g>
		<path d="M406.301,70.8h309.3c13.5,0,24.5-11,24.5-24.5v-0.5c0-13.5-11-24.5-24.5-24.5h-309.3c-13.5,0-24.5,11-24.5,24.5v0.5
			C381.7,59.8,392.7,70.8,406.301,70.8z"/>
		<path d="M381.7,140.2c0,13.5,11,24.5,24.5,24.5h416c13.5,0,24.5-11,24.5-24.5v-0.5c0-13.5-11-24.5-24.5-24.5h-416
			c-13.5,0-24.5,11-24.5,24.5V140.2L381.7,140.2z"/>
		<path d="M381.7,234c0,13.5,11,24.5,24.5,24.5h416c13.5,0,24.5-11,24.5-24.5v-0.5c0-13.5-11-24.5-24.5-24.5h-416
			c-13.5,0-24.5,11-24.5,24.5V234L381.7,234z"/>
		<path d="M381.7,375.2c0,13.5,11,24.5,24.5,24.5h309.3c13.5,0,24.5-11,24.5-24.5v-0.5c0-13.5-11-24.5-24.5-24.5H406.301
			c-13.5,0-24.5,11-24.5,24.5L381.7,375.2L381.7,375.2z"/>
		<path d="M381.7,469.101c0,13.5,11,24.5,24.5,24.5h223.5c13.5,0,24.5-11,24.5-24.5v-0.5c0-13.5-11-24.5-24.5-24.5H406.301
			c-13.5,0-24.5,11-24.5,24.5L381.7,469.101L381.7,469.101z"/>
		<path d="M381.7,562.9c0,13.5,11,24.5,24.5,24.5h416c13.5,0,24.5-11,24.5-24.5v-0.5c0-13.5-11-24.5-24.5-24.5h-416
			c-13.5,0-24.5,11-24.5,24.5V562.9L381.7,562.9z"/>
		<path d="M381.7,723.5c0,13.2,10.7,23.8,23.8,23.8h403.9c13.2,0,23.8-10.699,23.8-23.8V723c0-13.2-10.7-23.8-23.8-23.8H405.5
			c-13.199,0-23.8,10.7-23.8,23.8V723.5L381.7,723.5z"/>
		<path d="M381.7,814.7c0,13.2,10.7,23.8,23.8,23.8h350.301c13.199,0,23.8-10.7,23.8-23.8v-0.5c0-13.2-10.7-23.8-23.8-23.8H405.5
			c-13.199,0-23.8,10.7-23.8,23.8V814.7L381.7,814.7z"/>
		<path d="M381.7,905.8c0,13.2,10.7,23.801,23.8,23.801h159.9c13.2,0,23.8-10.7,23.8-23.801v-0.5c0-13.199-10.7-23.8-23.8-23.8
			H405.5c-13.199,0-23.8,10.7-23.8,23.8V905.8L381.7,905.8z"/>
		<path d="M108,154.5v125.4h198.6V154.5c0-10.4-9.101-18.9-20.3-18.9H263.7c-4,0-7.7,1.8-10,4.8l-33.3,43.7l-8.1-15.8l12.9-25.3
			c1.8-3.5-0.9-7.5-5.1-7.5h-25.9c-4.1,0-6.8,4-5.1,7.5l12.9,25.3l-8,15.6l-32.2-43.4c-2.3-3.1-6.1-4.9-10.1-4.9H128
			C117.101,135.6,108,144,108,154.5z"/>
		<path d="M207.3,121.6c33.5,0,60.8-27.3,60.8-60.8S240.8,0,207.3,0s-60.8,27.2-60.8,60.8C146.5,94.3,173.8,121.6,207.3,121.6z"/>
		<path d="M108,608.8h198.6V483.4c0-10.4-9.101-18.9-20.3-18.9H263.7c-4,0-7.7,1.8-10,4.8L220.4,513l-8.1-15.8l12.9-25.3
			c1.8-3.5-0.9-7.5-5.1-7.5h-25.9c-4.1,0-6.8,4-5.1,7.5l12.9,25.3l-8,15.6L161.8,469.4c-2.3-3.101-6.1-4.9-10.1-4.9H128
			c-11.2,0-20.3,8.5-20.3,18.9L108,608.8L108,608.8z"/>
		<path d="M146.5,389.7c0,33.5,27.3,60.8,60.8,60.8s60.8-27.3,60.8-60.8s-27.3-60.8-60.8-60.8S146.5,356.1,146.5,389.7z"/>
		<path d="M306.601,829c0-10.399-9.101-18.899-20.3-18.899H263.7c-4,0-7.7,1.8-10,4.8l-33.3,43.7l-8.1-15.801l12.9-25.3
			c1.8-3.5-0.9-7.5-5.1-7.5h-25.9c-4.1,0-6.8,4-5.1,7.5l12.9,25.3l-8,15.601L161.8,815c-2.3-3.1-6.1-4.899-10.1-4.899H128
			c-11.2,0-20.3,8.5-20.3,18.899v125.4h198.601L306.601,829L306.601,829z"/>
		<path d="M146.5,735.3c0,33.5,27.3,60.801,60.8,60.801s60.8-27.301,60.8-60.801s-27.3-60.8-60.8-60.8S146.5,701.7,146.5,735.3z"/>
	</g>
</g>
<g>
</g>
<g>
</g>
<g>
</g>
<g>
</g>
<g>
</g>
<g>
</g>
<g>
</g>
<g>
</g>
<g>
</g>
<g>
</g>
<g>
</g>
<g>
</g>
<g>
</g>
<g>
</g>
<g>
</g>
</svg>
