<?xml version="1.0" encoding="iso-8859-1"?>
<!-- Generator: Adobe Illustrator 16.0.0, SVG Export Plug-In . SVG Version: 6.00 Build 0)  -->
<!DOCTYPE svg PUBLIC "-//W3C//DTD SVG 1.1//EN" "http://www.w3.org/Graphics/SVG/1.1/DTD/svg11.dtd">
<svg version="1.1" id="Capa_1" xmlns="http://www.w3.org/2000/svg" xmlns:xlink="http://www.w3.org/1999/xlink" x="0px" y="0px"
	 width="407.605px" height="407.605px" viewBox="0 0 407.605 407.605" style="enable-background:new 0 0 407.605 407.605;"
	 xml:space="preserve">
<g>
	<g>
		<path d="M203.805,303.261c11.283,0,105.451-116.968,105.451-175.209c0-58.239-47.213-105.452-105.451-105.452
			c-58.242,0-105.453,47.213-105.453,105.452C98.352,186.292,192.93,303.261,203.805,303.261z M135.69,124.359
			c0-37.618,30.494-68.113,68.115-68.113c37.617,0,68.113,30.495,68.113,68.113c0,37.618-30.496,68.114-68.113,68.114
			C166.184,192.473,135.69,161.977,135.69,124.359z"/>
		<path d="M391.088,222.666c0-9.713-7.9-17.614-17.613-17.614c0,0-47.016,0-64.223,0c-1.34,0-2.883-0.071-4.58,2.776
			c-3.389,5.688-3.092,5.188-6.273,10.453c-1.48,2.449,0.76,3.279,1.682,3.279c20.564,0,73.396,0,73.396,0
			c0.588,0,1.104,0.518,1.104,1.104l16.52,144.727c0,0.588-0.516,1.105-1.105,1.105H17.616c-0.592,0-1.105-0.518-1.105-1.105
			l16.517-144.725c0-0.588,0.516-1.104,1.105-1.104c0,0,54.619,0,72.826,0c1.5,0,3.875-0.872,1.174-5.269
			c-3.169-5.157-1.941-3.646-5.299-9.354c-1.25-2.125-2.983-1.888-5.328-1.888c-15.844,0-63.373,0-63.373,0
			c-9.709,0-17.613,7.901-17.613,17.614L0,367.393c0,9.713,7.902,17.613,17.615,17.613h372.377c9.715,0,17.613-7.9,17.613-17.613
			L391.088,222.666z"/>
	</g>
</g>
<g>
</g>
<g>
</g>
<g>
</g>
<g>
</g>
<g>
</g>
<g>
</g>
<g>
</g>
<g>
</g>
<g>
</g>
<g>
</g>
<g>
</g>
<g>
</g>
<g>
</g>
<g>
</g>
<g>
</g>
</svg>
