<?xml version="1.0" encoding="iso-8859-1"?>
<!-- Generator: Adobe Illustrator 16.0.0, SVG Export Plug-In . SVG Version: 6.00 Build 0)  -->
<!DOCTYPE svg PUBLIC "-//W3C//DTD SVG 1.1//EN" "http://www.w3.org/Graphics/SVG/1.1/DTD/svg11.dtd">
<svg version="1.1" id="Capa_1" xmlns="http://www.w3.org/2000/svg" xmlns:xlink="http://www.w3.org/1999/xlink" x="0px" y="0px"
	 width="81.016px" height="81.016px" viewBox="0 0 81.016 81.016" style="enable-background:new 0 0 81.016 81.016;"
	 xml:space="preserve">
<g>
	<g>
		<circle cx="40.509" cy="17.217" r="17.217"/>
		<path d="M47.811,35.606H33.203c-12.152,0-22.041,9.888-22.041,22.042v17.869l0.045,0.279l1.232,0.385
			c11.598,3.623,21.676,4.834,29.971,4.834c16.199,0,25.59-4.621,26.172-4.914l1.15-0.584h0.121V57.648
			C69.854,45.494,59.967,35.606,47.811,35.606z M43.91,70.283l-3.152,4.613c-0.043,0.063-0.111,0.1-0.186,0.1
			c-0.002,0-0.004,0-0.006,0c-0.074,0-0.145-0.039-0.186-0.104l-2.928-4.616c-0.025-0.039-0.037-0.086-0.035-0.136l1.465-22.403
			c0.008-0.119,0.105-0.209,0.225-0.209h3.039c0.119,0,0.217,0.09,0.227,0.209l1.574,22.401
			C43.953,70.191,43.938,70.24,43.91,70.283z M42.484,46.85h-3.613l-3.141-6.492c0-0.623,0.504-1.125,1.127-1.125H44.4
			c0.621,0,1.125,0.502,1.125,1.125L42.484,46.85z"/>
	</g>
</g>
<g>
</g>
<g>
</g>
<g>
</g>
<g>
</g>
<g>
</g>
<g>
</g>
<g>
</g>
<g>
</g>
<g>
</g>
<g>
</g>
<g>
</g>
<g>
</g>
<g>
</g>
<g>
</g>
<g>
</g>
</svg>
