<?xml version="1.0" encoding="iso-8859-1"?>
<!-- Generator: Adobe Illustrator 16.0.0, SVG Export Plug-In . SVG Version: 6.00 Build 0)  -->
<!DOCTYPE svg PUBLIC "-//W3C//DTD SVG 1.1//EN" "http://www.w3.org/Graphics/SVG/1.1/DTD/svg11.dtd">
<svg version="1.1" id="Capa_1" xmlns="http://www.w3.org/2000/svg" xmlns:xlink="http://www.w3.org/1999/xlink" x="0px" y="0px"
	 width="122.999px" height="122.999px" viewBox="0 0 122.999 122.999" style="enable-background:new 0 0 122.999 122.999;"
	 xml:space="preserve">
<g>
	<g>
		<path d="M57.022,61.445c0-3.275-1.57-6.089-4.411-6.089c-2.788,0-4.413,2.652-4.413,6.198c0,3.572,1.678,6.088,4.439,6.088
			C55.426,67.643,57.022,64.991,57.022,61.445z"/>
		<path d="M113.107,61.499l9.891-9.741l-12.417-6.207l6.396-12.32l-13.727-2.066l2.275-13.694l-13.692,2.277L89.768,6.02
			l-12.32,6.396L71.239,0l-9.74,9.891L51.759,0l-6.208,12.417l-12.32-6.396l-2.067,13.727l-13.693-2.277l2.276,13.694L6.02,33.231
			l6.396,12.32L0,51.758l9.891,9.741L0,71.24l12.417,6.207L6.02,89.768l13.727,2.065l-2.276,13.694l13.693-2.276l2.067,13.728
			l12.32-6.396l6.208,12.416l9.74-9.892l9.74,9.892l6.208-12.416l12.32,6.396l2.066-13.728l13.693,2.276l-2.276-13.694l13.728-2.065
			l-6.396-12.319l12.417-6.207L113.107,61.499z M61.499,105.585c-20.11,0-37.062-13.47-42.359-31.875h12.869v14.524
			c2.322,2.56,4.978,4.807,7.891,6.692V73.71h9.25v25.632c2.359,0.77,4.815,1.321,7.346,1.639V73.71h9.25v27.367
			c2.624-0.278,5.173-0.81,7.619-1.571V73.71h9.25v21.526c3.104-1.945,5.924-4.301,8.374-7.002V73.71h12.87
			C98.561,92.115,81.609,105.585,61.499,105.585z M26.143,52.379h4.52l2.219,7.713c0.623,2.166,1.191,4.249,1.625,6.522h0.082
			c0.459-2.191,1.028-4.357,1.65-6.441l2.328-7.794h4.384L36.808,70.62h-4.819L26.143,52.379z M43.842,61.634
			c0-5.466,3.492-9.553,8.877-9.553c5.603,0,8.66,4.195,8.66,9.229c0,5.981-3.627,9.607-8.958,9.607
			C47.009,70.917,43.842,66.831,43.842,61.634z M61.945,55.843v-3.464h14.019v3.464h-4.979V70.62h-4.142V55.843H61.945z
			 M89.008,59.551v3.355h-6.711v4.33h7.497v3.384h-11.64V52.379h11.26v3.383h-7.118v3.789H89.008z M94.445,65.991
			c1.436,0,2.383,1.028,2.41,2.464c0,1.406-0.947,2.462-2.41,2.462c-1.461,0-2.436-1.056-2.436-2.462
			C92.01,67.02,93.012,65.991,94.445,65.991z M92.281,52.379h4.303l-0.596,12.26h-3.084L92.281,52.379z M90.988,49.288V34.763
			c-2.45-2.701-5.271-5.057-8.374-7.003v21.528h-9.25V23.492c-2.446-0.763-4.995-1.293-7.619-1.571v27.367h-9.25v-27.27
			c-2.53,0.317-4.986,0.869-7.346,1.639v25.632h-9.25V28.07c-2.913,1.886-5.569,4.134-7.891,6.693v14.524H19.14
			c5.297-18.404,22.249-31.874,42.359-31.874c20.11,0,37.063,13.47,42.358,31.875H90.988z"/>
	</g>
</g>
<g>
</g>
<g>
</g>
<g>
</g>
<g>
</g>
<g>
</g>
<g>
</g>
<g>
</g>
<g>
</g>
<g>
</g>
<g>
</g>
<g>
</g>
<g>
</g>
<g>
</g>
<g>
</g>
<g>
</g>
</svg>
